<?xml version="1.0" encoding="utf-8"?>
<!-- Generator: Adobe Illustrator 19.0.0, SVG Export Plug-In . SVG Version: 6.00 Build 0)  -->
<svg version="1.1" xmlns="http://www.w3.org/2000/svg" xmlns:xlink="http://www.w3.org/1999/xlink" x="0px" y="0px"
	 viewBox="52 -108.5 129.4 346.5" style="enable-background:new 52 -108.5 129.4 346.5;" xml:space="preserve">
<style type="text/css">
	.st0{display:none;}
	.st1{display:inline;fill:#9EC9EB;}
	.st2{fill:#9EC9ED;}
	.st3{fill:#FFFFFF;}
</style>
<g id="Слой_1" class="st0">
	<path id="XMLID_2_" class="st1" d="M179.5-88.5c-2.5-6.3-11-19.6-42.9-19.6c-33.2,0-43.4,14.4-43.4,20.9c0,0.1-0.2,2.3,1.3,4.2
		c1.1,1.4,2.7,2.2,3.9,3.5c1.7,1.8,1.9,3.1,0.6,5.3c-0.5,0.8-0.5,1.5,0,2.2c0.6,0.9,1.3,1.8,2,2.7c1.8,2.3,1.8,2.9-0.4,4.8
		c-0.2,0.2-0.4,0.3-0.5,0.5c-0.2,0.2-0.4,0.4-0.5,0.6c-1.1,0.3-3.6,0.9-4.7,1.2c-1.5,0.3-3.5,0.3-4.3,0.5c-0.8,0.2-3.5,1.4-6.4,0.3
		c-2.8-1-7.3-3.2-7.4-3.5s-2.4-1.8-3.6-2c-1.2-0.1-6.7-2-7.9-2.6c-1.2-0.7-4.2-2.3-5.4-2.5s-2.1-0.6-2.8-0.8v0.7
		c0.7,0.3,1.6,0.6,2.8,0.8c1.2,0.2,4.3,1.9,5.4,2.5c1.2,0.7,6.7,2.5,7.9,2.6c1.2,0.1,3.5,1.7,3.6,2c0.1,0.3,4.6,2.4,7.4,3.5
		c2.8,1,5.6-0.1,6.4-0.3s2.8-0.3,4.3-0.5c1.1-0.2,3.3-0.8,4.5-1.1c0,0.5,0.4,0.9,1.1,1.3c0.6,0.3,1.2,0.8,1.6,1.3
		c1.2,1.9,2.3,3.9,3.5,5.9c1.1,1.9,0.9,3.2-0.6,4.7c-0.6,0.6-1.2,1.1-1.6,1.7c-0.4,0.7-0.8,1.6-0.9,2.4c-0.2,2.3,0.6,4.2,2.7,5.4
		c0.9,0.5,1.7,1.2,1.3,2.4c-0.5,1.8-1.4,3.3-2.9,4.4c-3.1,2.2-6.2,4.3-9.2,6.4c-1.9,1.3-3,3.1-3.7,5.3c-0.8,2.4-1.5,4.8-2.6,7.1
		c-1.6,3.3-2.6,6.5-2.4,10.2c0,0.8-0.1,1.7-0.2,2.5c-0.4,3.2-1.1,6.5-1.3,9.7c-0.1,1.8,0.5,3.7,1,5.5c0.4,1.3,1.1,2.5,1.8,3.6
		c0.4,0.7,0.4,1.2,0,1.9c-0.9,1.9-1.2,3.8,0.2,5.8c1.3,1.8,0.9,2.4-1.4,2.5c-0.2,0-0.3,0-0.5,0c-1.1-0.1-1.8,0.4-2.4,1.3
		c-1.5,2.2-1.3,4.5-0.6,6.8c0.3,1,0.1,1.4-0.6,2c-2.9,2.4-3.5,4.9-2.3,8.5c0.2,0.8,0.2,1.8-0.1,2.6c-0.4,1.6-3.3,2.8-4.4,2
		c-1.5-1.2-3-1.1-4.6-0.4c-1.9,0.8-2.5,0.6-3.3-1.4c-0.5-1.2-0.9-2.4-1.5-3.5c-0.2-0.4-0.9-0.9-1.3-0.9s-0.9,0.5-1.2,0.9
		c-0.2,0.3-0.1,1.1-0.5,1.1c-0.5,0,0-1-0.1-1.5c-0.1-0.4-0.3-1.1-0.5-1.1c-0.5,0-1.1,0.2-1.4,0.5c-0.3,0.2-0.3,0.8-0.5,1.2
		c-0.3,0.8-0.7,1.6-1.1,2.5c-1.2-0.8-1.7-0.7-2.5,0.3c-0.3,0.4-0.8,0.9-1.2,0.9c-1.3,0.1-2.1,0.8-2.2,2.1c-0.1,0.6-0.3,1.5,0.2,1.8
		c0.4,0.3,1.3-1,1.3-1.1c0.1-0.2,0.3-0.3,0.6,0c0.3,0.2,0.1,1.2,0.6,1.6c1,0.9,2,1,2.1,3.2c0,0.6,1,1.1,1,2c0,0.3-0.6,0.4-0.9,0.3
		c-1.4-0.2-2,0.5-1.9,2.1c0,0.6,0.6,1.3,0.8,1.9c0.1,0.4,0.3,0.9,0.2,1.2c-0.7,1.7,0.1,2.8,1.9,3c1.2,0.1,2.4,0.4,3.7,0.4
		c0.9,0,1.9,0,2.7-0.3c1-0.4,1.5-0.2,2,0.7c0.7,1.2,2.1,1.8,3.1,1.2c0.8-0.5,1.4-0.4,2.2,0.1c1.7,1.1,2.6,0.6,2.8-1.3
		c0.1-0.9,0.8-1.2,1.5-0.7c0.5,0.4,0.9,0.9,1.5,1.2c0.7,0.3,1.7,0.6,2.2,0.3s0.8-1.4,0.8-2.1c-0.1-2.7-1.4-4.9-3.5-6.5
		c-0.6-0.5-1.3-0.9-1.9-1.3c-1.6-1.2-1.8-2.4-0.9-4.1c0.3-0.6,0.6-1.2,0.5-1.8c-0.1-1.1,0.4-1.3,1.3-1.6c3.1-0.8,4.3-3.2,3.1-6.2
		c-0.8-2.1-0.5-4,1-5.7c0.7-0.8,1.4-1.5,2.1-2.2c1-1,1.7-2.1,1.6-3.7c-0.1-1.8,0.5-3.4,1.9-4.6c1-0.8,2.3-0.7,3,0.4
		c0.3,0.5,0.6,1,0.7,1.5c0.9,3.9,1.9,7.8,2.6,11.8c0.6,3.9,2.2,6.9,5.8,8.9c1.2,0.7,2.5,1.9,2.9,3.2c1.3,3.5,2.4,7.2,3.3,10.9
		c0.6,2.4,1.2,4.8,1.4,7.3c0.1,1.8-0.7,3.6-0.8,5.4c-0.3,4.8-1.9,9.3-3.1,13.9c-0.3,1-0.8,2-1.3,2.9c-0.3,0.6-0.8,0.7-1.2,0
		c-0.4-0.6-0.8-1.2-1-1.9c-0.8-2.7-2.7-4-5.2-4.9c-0.8-0.3-1.7-0.6-2.2,0.2c-0.4,0.7-0.7,1.7-0.5,2.4c0.2,0.9,0.7,1.7,1.3,2.4
		c2.1,2.2,3.4,4.8,4.1,7.6c0.7,2.8,1.9,5.3,3.8,7.5c2.7,3,4.4,6.6,6,10.3c0.9,2.1,2,4.1,3.2,6.1c0.2,0.4,0.9,0.9,1.3,0.6
		c0.4-0.2,0.3-1.1,0.2-1.5c-0.5-1.1-1.2-2.2-1.7-3.3c-1.2-2.8-2.3-5.6-3.4-8.4c-0.4-1.1,0.3-2.4,1.2-2.4c1,0.1,1.2-0.4,1.4-1.2
		c0.1-0.9,0.6-0.8,1.2-0.3c0.2,0.2,0.4,0.5,0.5,0.8c1.3,2.7,3.3,4.8,5.9,6.3c1.1,0.6,2.5,0.7,3.8,0.9c0.4,0,0.9-0.5,1.2-0.8
		c0.2-0.3,0.3-0.7,0.4-1.1c0.1,0,0.2,0,0.3-0.1c0.4,0.9,0.9,1.8,1.2,2.7c0.8,2,1.5,4.1,2.2,6.1c1,2.7,1.9,5.4,3.1,8
		c1,2.1,0.9,4.1-0.4,5.9c-0.7,1-1.1,1.9-1.2,3.1c0,0.5-0.4,1-0.8,1.3c-0.8,0.6-1.8,1-2.6,1.6c-1.6,1.3-2.2,1.3-3.5-0.4
		c-0.6-0.7-1.3-1.5-2.2-1.7c-1.1-0.3-1.6-0.9-2.2-1.8c-0.6-0.9-1.5-1.8-2.3-2.5c-0.3-0.2-1-0.2-1.3,0c-0.3,0.2-0.5,0.9-0.4,1.2
		c0.4,1.2,0.8,2.5,1.6,3.4c1.1,1.2,1.9,2.6,2.3,4.1c0.3,1.4,0.8,2.7,1,4.1c0.2,0.9,0.2,1.7,0.2,2.6c0,0.3-0.1,0.7-0.4,0.8
		c-0.3,0.1-0.6-0.2-0.7-0.5c-1.3-2.1-2.6-4.3-4-6.4c-0.8-1.2-1.9-2.2-2.9-3.3c-0.5-0.6-1.2-1.2-1.5-1.9c-0.9-2.2-1.4-4.6-1.4-7
		c-0.1-3.7-1.7-6.9-3.4-10.1c-1.1-2-2.4-3.8-4.2-5.3c-0.7-0.6-1.2-1.5-1.7-2.4c-0.9-1.7-1.6-3.6-2.6-5.3c-0.3-0.5-1.1-0.9-1.6-0.8
		c-0.4,0-1,0.9-0.9,1.4c0,1.3,0.1,2.7,0.6,3.8c0.7,1.6,1.8,3,2.8,4.5c2,3.2,3.9,6.3,5.9,9.5c0.5,0.8,1,1.6,1.3,2.4
		c0.1,0.3,0.2,0.9-0.1,1.2c-0.3,0.2-0.8-0.2-1.2-0.3c-0.2-0.1-0.4-0.3-0.5-0.5c-1.1-1.7-2.2-3.5-3.2-5.2c-1.2-2.1-2.3-4.2-3.6-6.2
		c-0.5-0.8-1.3-1.4-2.4-0.8c-0.8,0.4-1.1,1.7-0.5,2.7c0.7,1.3,1.4,2.5,2.3,3.6c1.6,2.1,3.5,4,5.1,6c2,2.5,1.6,5.4,1.5,8.3
		c-0.4-0.3-0.6-0.6-0.8-0.9c-0.5-0.9-0.9-1.8-1.5-2.6c-0.2-0.3-0.8-0.8-1.3-0.6c-0.4,0.2-0.4,0.9-0.5,1.3c0,0.2,0.2,0.5,0.3,0.8
		c1.2,3.4,2.4,6.8,3.5,10.2c0.2,0.5,0.3,1.2-0.1,1.5c-0.4,0.3-1.2-0.1-1.5-0.4c-1.1-1.1-2.3-2.3-3.1-3.6c-0.9-1.3-1.9-2.1-3.4-2.3
		c-0.6-0.1-1.3-0.4-1.8-0.8c-0.9-0.7-1.7-1.7-2.5-2.5c-1.3-1.1-1.4-2.2-0.3-3.5c0.7-0.8,1-1.6,0.8-2.5c-0.2-1-0.3-2.1-0.8-2.9
		c-1.4-2.2-2.9-4.3-4.6-6.3c-1.2-1.5-2-3.1-2.5-4.8c-0.5-1.5-1-3-1.9-4.3c-0.5-0.8-1.3-1.4-1.1-2.5c0-0.3-0.2-0.8-0.5-0.8
		c-0.4-0.1-1-0.1-1.2,0.2c-0.3,0.3-0.5,0.8-0.5,1.3c-0.2,1.3-0.2,2.7-0.4,4c-0.4,2.8,0.6,5.4,1.7,7.9c0.5,1.1,1.5,1,2.2,0
		c0.3-0.5,0.5-1,0.8-1.5c1.2,0.8,1.2,2,1.6,3.2c0.4,1.1,0.7,2.3,1.3,3.3c0.5,1,1.4,1.7,2.1,2.6c0.7,0.9,1,1.9,0.6,3
		c-0.9,2.8-0.2,5.2,1.8,7.4c0.5,0.5,0.9,1.2,1.1,1.9c0.7,3.7,3.2,5.7,6.3,7.3c0.6,0.3,1.1,1,1.6,1.6s0.7,1.4,1.3,1.8
		c1.2,0.9,1.4,1.9,1,3.2c-0.3,0.8-0.7,1.6-1.1,2.4c-0.9,1.6-2,3.2-2,5.2c0,0.4-0.3,1.1-0.8,1.2s-0.8-0.5-1.2-0.8
		c-0.2-0.2-0.3-0.6-0.5-0.8c-0.5-0.9-1.2-1.2-2.2-1.2c-0.5,0-1.1-0.3-1.5-0.6c-0.7-0.6-1.5-0.5-1.7,0.3c-0.2,0.6-0.2,1.6,0.2,2
		c1.1,1.4,2.2,2.8,3.7,3.7c1.6,1,2.5,2.3,2.9,4.2c0.6,2.9,2.1,5.4,4.5,7.2c4,2.9,8.1,5.7,12.2,8.4c0.9,0.6,2.3,0.5,3.5,0.7
		c0.6,0.1,1.4,0.1,1.7,0.5c1.1,1.2,2.3,1.6,3.9,1.5c0.3,0,1,0.4,1.1,0.8c0.3,0.8,0.8,1.1,1.5,1.3c0.5,0.2,1.1,0.6,1.2,1
		c0.3,2.4,1.7,4.1,3.3,5.9c2.4,2.8,4.8,5.6,5.8,9.3c0.4,1.3,0.1,2.8,0.7,4c1.1,2.4,1.1,4.7,0.7,7.3c-0.3,1.7-0.8,2.8-2.4,3.5
		c-0.3,0.1-0.6,0.2-0.7,0.4c-0.6,0.9-1.3,0.5-2,0.2c-3.3-1.6-6.8-2.5-10.5-2.3c-1.7,0.1-3.5-0.3-5.2-0.5c-1.8-0.2-3.4,0.2-4.8,1
		c-0.4,0.3-0.7,1.2-0.6,1.8c0.1,0.4,0.8,0.9,1.4,1s1.2-0.3,1.9-0.4c0.8-0.1,1.7-0.3,2.5-0.2c1.8,0.1,3.7,0.5,5.5,0.4
		c2.5-0.1,4.8,0.4,7.1,1.4c0.7,0.3,1,0.7,1,1.5c0.1,3.1,1.6,5.4,4.3,6.1c1.7,0.4,3.5,0.4,5.2,0.2c1.6-0.2,3.1-0.9,4.7-1.3
		c0.4-0.1,1.1,0,1.4,0.3c0.8,0.8,1.7,0.9,2.6,0.4c1-0.4,1.4-1.2,1.4-2.3c0-0.4,0.2-0.9,0.5-1.2c2.4-1.8,4.9-3.5,7.3-5.2
		c1.5-1,3.2-1.9,4.8-2.9c0.4,0.7,0.7,1.2,1.1,1.7c1.5,1.9,3,3.7,4.5,5.5c0.3,0.3,0.9,0.6,1.2,0.5c0.5-0.1,1.3-0.5,1.4-0.9
		c0.1-0.6-0.1-1.4-0.5-1.9c-1.8-2.6-3.6-5.2-5.4-7.7c-0.4-0.5-0.4-0.9,0.1-1.5c1.8-2.3,2.2-4.8,0.8-7.5c-0.8-1.5-0.6-3.1-0.5-5
		c1.7,0.7,3.3,1.3,4.9,1.8c1.4,0.4,2.7,0.8,4.1,1.1c1.3,0.3,2.2,1.2,2,2.5c-0.1,0.8-0.4,1.5-0.6,2.3c-0.1,0.4-0.7,1.8-0.1,1.5
		c0.8-0.4,1.8-4.4,1.2-5.5c-0.1-0.1-0.1-0.2-0.2-0.3c-1.3-1-2.5-2.1-3.9-2.8c-1.8-0.9-3.9-1.5-5.8-2.2c-0.7-0.3-0.9-0.6-0.6-1.4
		c0.4-1.5,0.8-2.9,1.1-4.4c0.5-2.3-0.6-4.4-2.8-5.4c-1.1-0.5-2.2-1.1-3.4-1.6c-1.3-0.6-2.2-1.6-2.6-3.1c-0.3-1.2-0.7-2.5-1.1-3.7
		c-0.7-2.5-1.5-4.8-3.5-6.5c-0.6-0.5-1.1-1.5-1-2.3c0.1-1.7-0.2-3-1.4-4.2c-0.9-0.9-0.7-2.2-0.4-3.2c0.2-0.5,1.1-0.7,1.8-0.9
		c0.6-0.2,1.2-0.3,1.7-0.5c1.9-0.7,3.9-1.2,6-0.9c1.4,0.2,2.8-0.3,3.9-1.4c1.3-2,3.6-1.3,4.8,0.1c0.9,1.1,1.7,2,3,2
		c1.8,0,3.5-0.2,5.2-0.4c0.2,0,0.4-0.2,0.5-0.4c0-0.1-0.4-0.3-0.5-0.3c-2.6,0.3-1.5,0.2-2.5,0.3c-1.7,0.1-3.6,0.5-5-1
		c-0.9-1-1.8-2-3.3-1.9c-1.3,0.1-2.7,0-3.9,0.4c-1.2,0.4-2.4,0.8-3.7,0.5c-0.6-0.1-1.2,0-1.8,0.1c-2,0.5-4,1.1-6,1.7
		c-0.7,0.2-1.4,0.4-1.9-0.5c-0.5-0.8-1.2-1.4-1.9-1.9c-1.5-1.2-2.7-2.6-3.3-4.5c-0.8-2.6-1.8-5.1-3.3-7.4c-1.7-2.6-1.6-5.2-0.6-8.1
		c1.4-4.1,2.7-8.3,3.6-12.5c0.9-3.9,0.7-7.9-0.9-11.8c-0.6-1.6-1.2-3.2-1.7-4.8c-0.3-1.1-0.9-1.9-2-2.2c-0.8-0.2-1.5-0.5-2.3-0.6
		c-1.9-0.3-1.8-0.3-2.3-2.2c-0.4-1.5-1-2.9-2.3-3.8c-0.7-0.4-1.5-0.5-2,0.2c-0.6,0.7-0.3,1.3,0.4,1.8c0.8,0.6,1.6,2,0.8,2.4
		c-0.4,0.2-0.6-0.5-0.8-0.8c-0.9-1.2-1.2-2.7-1.5-4.1c-0.3-1.2-0.9-1.8-2-2c-1-0.3-2.1-0.6-3.1-1c-0.4-0.2-0.9-0.5-1-0.9
		c-0.3-1.2-1.2-1.6-2.2-1.9c-1.8-0.5-3.6-1-5.6-1.6c1.2-0.7,1.6-1.5,0.9-2.2c-0.4-0.4-1-0.8-1.5-0.8c-2.5,0-3.8-1.7-4.9-3.4
		c0.6-1.9,1.1-3.7,1.8-5.5c1.2-3.4,1.4-7.1,2.1-10.6c0.7-3.6,0.7-7.2-0.3-10.7c-0.9-3.2-1.8-6.3-3-9.4c-0.7-1.9-0.6-3.7-0.6-5.6
		c0-1.2,0-2.2-0.9-3.1c-0.2-0.2-0.5-0.7-0.3-0.9c0.2-0.3,0.7,0.1,1,0.2c0.6,0.1,1.3,0.5,1.8,0.4c1.9-0.5,2.7,0.1,3.2,2
		c0.4,1.6,1.2,3.1,2,4.6c0.4,0.8,1.3,0.7,1.5-0.2c0.2-1.1,0.8-0.9,1.4-0.5c0.3,0.2,0.5,0.4,0.8,0.5c1.1,0.6,2,0,1.9-1.2
		c-0.1-0.6-0.6-1.1-0.8-1.7c-0.2-0.5-0.7-1.3-0.3-1.6c0.4-0.3,1.1,0.2,1.4,0.5c0.6,0.5,1.2,0.8,1.9,0.4c0.9-0.5,1.7-0.3,2.5,0.5
		c0.9,0.9,2.7,0.9,3.8,0.2c0.6-0.5,0.8-1,0.3-1.6c-0.3-0.4-0.4-0.9-0.6-1.4c-0.2-0.4-0.3-0.9-0.6-1.1c-1.3-0.6-2-1.6-2.4-2.9
		c-0.5-1.3-1.2-1.5-2.5-0.9c-0.5,0.2-1.1,0.3-1.5,0.2c-1-0.3-1.4-0.1-1.6,0.9c-0.1,0.7-0.6,1-1.3,0.9c-1-0.2-2.1-0.2-3.1-0.4
		c-0.8-0.2-1.7-0.3-2.2-0.8c-1.3-1.3-2.3-2.7-3.4-4.1c-0.5-0.7-0.2-1.1,0.7-1.2c0.4,0,1-0.1,1.3-0.4c1.4-1.3,1.2-3-0.4-4
		c-0.2-0.2-0.5-0.3-0.7-0.4c-2.5-0.8-3.1-2.6-2.8-5.1c0.3-2.6-1.8-4.2-4.4-3.5c-0.7,0.2-1.4,0.3-1.8-0.4s-0.9-1.5-0.1-2.3
		c0.5-0.6,0.6-1.2,0.1-1.7c-0.6-0.6-1.2-0.8-2-0.3c-1.5,1-2.9,0.5-3.8-1.1c-0.5-0.8-0.8-1.9-1.5-2.4c-1-0.7-1.6-1.6-2.2-2.6
		c-1.9-2.9-2.8-6-2.1-9.4c0.8-4.5,1.5-9,1.6-13.5c0-0.8,0.5-1.6,0.9-2.4c0.6-1.4,1.5-2.7,2-4.2c0.7-2,1.4-4,1.9-6.1
		c0.5-2,1.7-3.3,3.3-4.3c1.8-1.1,3.6-2.3,5.4-3.4c1.6-1,3.4-0.4,4,1.5c0.8,2.8,2.9,4.2,5.4,5.1c1.2,0.4,1.8,0.9,1.9,2.1
		c0.1,1.1,0.8,1.7,1.9,1.8c1.8,0,3.3,0.9,4.5,2.2c1.1,1.2,2.1,1.4,3.6,0.6c2-1,3.8-2.3,4.6-4.5c0.1-0.4,0.4-0.9,0.8-0.9
		c0.5,0,0.8,0.6,0.9,1c1.1,3,3.8,4,6.5,4.3c3.1,0.4,5.5,2,6.5,5c0.5,1.5,2,1.8,3.1,0.7c0.7-0.7,1.2-0.6,1.4,0.3
		c0.6,2.1,1.3,4.1,1.8,6.2c0.3,1.1,0.9,1.8,1.9,2.3c0.9,0.5,1.8,1.1,2.4,1.9c0.8,1.2,1.8,1.9,3.2,1.9c1.7,0,2.8,0.8,4,1.8
		c0.7,0.6,1.7,0.8,2.6,1.3c0.9,0.4,1.8,0.7,2.6,1.2c0.9,0.6,1.7,1.5,2.5,2.2c0.8,0.8,1.7,1.1,2.7,0.9c1.4-0.4,5.9-10.5,4.1-13.7
		c-5.5-10.1,3.9-8.1-0.1-18.4c-0.9-2.4,1.9-7.1,0.5-9.3c-1.2-2-2.7-3.8-3.6-5.9c-1.5-3.3-3.1-6.5-6.2-8.7c-1.8-1.3-3.1-2.8-2.2-5.2
		c0.1-0.2,0.1-0.6,0-0.8c-0.3-1.7-2.3-4-1-4.9c1.8-1.3,2.7,1.3,5.4-0.8c1.3-1.1,2.4-2.3,3.6-3.5c1.6-1.7,2.2-3.7,1.3-5.9
		c-0.6-1.5-0.2-1.9,1.2-2.6c0.8-0.4,1.6-1,2.2-1.7c1-1.2-0.7-6.8,2.3-11.5C180.6-84.8,180.2-87,179.5-88.5z"/>
</g>
<g id="Слой_2">
	<path class="st2" d="M179.7-88c-2.5-6.3-11-19.6-42.9-19.6c-33.2,0-43.4,14.4-43.4,20.9c0,0.1-0.2,2.3,1.3,4.2
		c1.1,1.4,2.7,2.2,3.9,3.5c1.7,1.8,1.9,3.1,0.6,5.3c-0.5,0.8-0.5,1.5,0,2.2c0.6,0.9,1.3,1.8,2,2.7c1.8,2.3,1.8,2.9-0.4,4.8
		c-0.2,0.2-0.4,0.3-0.5,0.5c-0.2,0.2-0.4,0.4-0.5,0.6c-1.1,0.3-3.6,0.9-4.7,1.2c-1.5,0.3-3.5,0.3-4.3,0.5c-0.8,0.2-3.5,1.4-6.4,0.3
		c-2.8-1-7.3-3.2-7.4-3.5c-0.1-0.3-2.4-1.8-3.6-2c-1.2-0.1-6.7-2-7.9-2.6c-1.2-0.7-4.2-2.3-5.4-2.5s-2.1-0.6-2.8-0.8v0.7
		c0.7,0.3,1.6,0.6,2.8,0.8s4.2,1.9,5.4,2.5c1.2,0.7,6.7,2.5,7.9,2.6c1.2,0.1,3.5,1.7,3.6,2c0.1,0.3,4.6,2.4,7.4,3.5
		c2.8,1,5.6-0.1,6.4-0.3c0.8-0.2,2.8-0.3,4.3-0.5c1.1-0.2,3.3-0.8,4.5-1.1c0,0.5,0.4,0.9,1.1,1.3c0.6,0.3,1.2,0.8,1.6,1.3
		c1.2,1.9,2.3,3.9,3.5,5.9c1.1,1.9,0.9,3.2-0.6,4.7c-0.6,0.6-1.2,1.1-1.6,1.7c-0.4,0.7-0.8,1.6-0.9,2.4c-0.2,2.3,0.6,4.2,2.7,5.4
		c0.9,0.5,1.7,1.2,1.3,2.4c-0.5,1.8-1.4,3.3-2.9,4.4c-3.1,2.2-6.2,4.3-9.2,6.4c-1.9,1.3-3,3.1-3.7,5.3c-0.8,2.4-1.5,4.8-2.6,7.1
		c-1.6,3.3-2.6,6.5-2.4,10.2c0,0.8-0.1,1.7-0.2,2.5c-0.4,3.2-1.1,6.5-1.3,9.7c-0.1,1.8,0.5,3.7,1,5.5c0.4,1.3,1.1,2.5,1.8,3.6
		c0.4,0.7,0.4,1.2,0,1.9c-0.9,1.9-1.2,3.8,0.2,5.8c1.3,1.8,0.9,2.4-1.4,2.5c-0.2,0-0.3,0-0.5,0c-1.1-0.1-1.8,0.4-2.4,1.3
		c-1.5,2.2-1.3,4.5-0.6,6.8c0.3,1,0.1,1.4-0.6,2c-2.9,2.4-3.5,4.9-2.3,8.5c0.2,0.8,0.2,1.8-0.1,2.6c-0.4,1.6-3.3,2.8-4.4,2
		c-1.5-1.2-3-1.1-4.6-0.4c-1.9,0.8-2.5,0.6-3.3-1.4c-0.5-1.2-0.9-2.4-1.5-3.5c-0.2-0.4-0.9-0.9-1.3-0.9c-0.4,0-0.9,0.5-1.2,0.9
		c-0.2,0.3-0.1,1.1-0.5,1.1c-0.5,0,0-1-0.1-1.5c-0.1-0.4-0.3-1.1-0.5-1.1c-0.5,0-1.1,0.2-1.4,0.5c-0.3,0.2-0.3,0.8-0.5,1.2
		c-0.3,0.8-0.7,1.6-1.1,2.5c-1.2-0.8-1.7-0.7-2.5,0.3c-0.3,0.4-0.8,0.9-1.2,0.9c-1.3,0.1-2.1,0.8-2.2,2.1c-0.1,0.6-0.3,1.5,0.2,1.8
		c0.4,0.3,1.3-1,1.3-1.1c0.1-0.2,0.3-0.3,0.6,0c0.3,0.2,0.1,1.2,0.6,1.6c1,0.9,2,1,2.1,3.2c0,0.6,1,1.1,1,2c0,0.3-0.6,0.4-0.9,0.3
		c-1.4-0.2-2,0.5-1.9,2.1c0,0.6,0.6,1.3,0.8,1.9c0.1,0.4,0.3,0.9,0.2,1.2c-0.7,1.7,0.1,2.8,1.9,3c1.2,0.1,2.4,0.4,3.7,0.4
		c0.9,0,1.9,0,2.7-0.3c1-0.4,1.5-0.2,2,0.7c0.7,1.2,2.1,1.8,3.1,1.2c0.8-0.5,1.4-0.4,2.2,0.1c1.7,1.1,2.6,0.6,2.8-1.3
		c0.1-0.9,0.8-1.2,1.5-0.7c0.5,0.4,0.9,0.9,1.5,1.2c0.7,0.3,1.7,0.6,2.2,0.3c0.5-0.3,0.8-1.4,0.8-2.1c-0.1-2.7-1.4-4.9-3.5-6.5
		c-0.6-0.5-1.3-0.9-1.9-1.3c-1.6-1.2-1.8-2.4-0.9-4.1c0.3-0.6,0.6-1.2,0.5-1.8c-0.1-1.1,0.4-1.3,1.3-1.6c3.1-0.8,4.3-3.2,3.1-6.2
		c-0.8-2.1-0.5-4,1-5.7c0.7-0.8,1.4-1.5,2.1-2.2c1-1,1.7-2.1,1.6-3.7c-0.1-1.8,0.5-3.4,1.9-4.6c1-0.8,2.3-0.7,3,0.4
		c0.3,0.5,0.6,1,0.7,1.5c0.9,3.9,1.9,7.8,2.6,11.8c0.6,3.9,2.2,6.9,5.8,8.9c1.2,0.7,2.5,1.9,2.9,3.2c1.3,3.5,2.4,7.2,3.3,10.9
		c0.6,2.4,1.2,4.8,1.4,7.3c0.1,1.8-0.7,3.6-0.8,5.4c-0.3,4.8-1.9,9.3-3.1,13.9c-0.3,1-0.8,2-1.3,2.9c-0.3,0.6-0.8,0.7-1.2,0
		c-0.4-0.6-0.8-1.2-1-1.9c-0.8-2.7-2.7-4-5.2-4.9c-0.8-0.3-1.7-0.6-2.2,0.2c-0.4,0.7-0.7,1.7-0.5,2.4c0.2,0.9,0.7,1.7,1.3,2.4
		c2.1,2.2,3.4,4.8,4.1,7.6c0.7,2.8,1.9,5.3,3.8,7.5c2.7,3,4.4,6.6,6,10.3c0.9,2.1,2,4.1,3.2,6.1c0.2,0.4,0.9,0.9,1.3,0.6
		c0.4-0.2,0.3-1.1,0.2-1.5c-0.5-1.1-1.2-2.2-1.7-3.3c-1.2-2.8-2.3-5.6-3.4-8.4c-0.4-1.1,0.3-2.4,1.2-2.4c1,0.1,1.2-0.4,1.4-1.2
		c0.1-0.9,0.6-0.8,1.2-0.3c0.2,0.2,0.4,0.5,0.5,0.8c1.3,2.7,3.3,4.8,5.9,6.3c1.1,0.6,2.5,0.7,3.8,0.9c0.4,0,0.9-0.5,1.2-0.8
		c0.2-0.3,0.3-0.7,0.4-1.1c0.1,0,0.2,0,0.3-0.1c0.4,0.9,0.9,1.8,1.2,2.7c0.8,2,1.5,4.1,2.2,6.1c1,2.7,1.9,5.4,3.1,8
		c1,2.1,0.9,4.1-0.4,5.9c-0.7,1-1.1,1.9-1.2,3.1c0,0.5-0.4,1-0.8,1.3c-0.8,0.6-1.8,1-2.6,1.6c-1.6,1.3-2.2,1.3-3.5-0.4
		c-0.6-0.7-1.3-1.5-2.2-1.7c-1.1-0.3-1.6-0.9-2.2-1.8c-0.6-0.9-1.5-1.8-2.3-2.5c-0.3-0.2-1-0.2-1.3,0c-0.3,0.2-0.5,0.9-0.4,1.2
		c0.4,1.2,0.8,2.5,1.6,3.4c1.1,1.2,1.9,2.6,2.3,4.1c0.3,1.4,0.8,2.7,1,4.1c0.2,0.9,0.2,1.7,0.2,2.6c0,0.3-0.1,0.7-0.4,0.8
		c-0.3,0.1-0.6-0.2-0.7-0.5c-1.3-2.1-2.6-4.3-4-6.4c-0.8-1.2-1.9-2.2-2.9-3.3c-0.5-0.6-1.2-1.2-1.5-1.9c-0.9-2.2-1.4-4.6-1.4-7
		c-0.1-3.7-1.7-6.9-3.4-10.1c-1.1-2-2.4-3.8-4.2-5.3c-0.7-0.6-1.2-1.5-1.7-2.4c-0.9-1.7-1.6-3.6-2.6-5.3c-0.3-0.5-1.1-0.9-1.6-0.8
		c-0.4,0-1,0.9-0.9,1.4c0,1.3,0.1,2.7,0.6,3.8c0.7,1.6,1.8,3,2.8,4.5c2,3.2,3.9,6.3,5.9,9.5c0.5,0.8,1,1.6,1.3,2.4
		c0.1,0.3,0.2,0.9-0.1,1.2c-0.3,0.2-0.8-0.2-1.2-0.3c-0.2-0.1-0.4-0.3-0.5-0.5c-1.1-1.7-2.2-3.5-3.2-5.2c-1.2-2.1-2.3-4.2-3.6-6.2
		c-0.5-0.8-1.3-1.4-2.4-0.8c-0.8,0.4-1.1,1.7-0.5,2.7c0.7,1.3,1.4,2.5,2.3,3.6c1.6,2.1,3.5,4,5.1,6c2,2.5,1.6,5.4,1.5,8.3
		c-0.4-0.3-0.6-0.6-0.8-0.9c-0.5-0.9-0.9-1.8-1.5-2.6c-0.2-0.3-0.8-0.8-1.3-0.6c-0.4,0.2-0.4,0.9-0.5,1.3c0,0.2,0.2,0.5,0.3,0.8
		c1.2,3.4,2.4,6.8,3.5,10.2c0.2,0.5,0.3,1.2-0.1,1.5c-0.4,0.3-1.2-0.1-1.5-0.4c-1.1-1.1-2.3-2.3-3.1-3.6c-0.9-1.3-1.9-2.1-3.4-2.3
		c-0.6-0.1-1.3-0.4-1.8-0.8c-0.9-0.7-1.7-1.7-2.5-2.5c-1.3-1.1-1.4-2.2-0.3-3.5c0.7-0.8,1-1.6,0.8-2.5c-0.2-1-0.3-2.1-0.8-2.9
		c-1.4-2.2-2.9-4.3-4.6-6.3c-1.2-1.5-2-3.1-2.5-4.8c-0.5-1.5-1-3-1.9-4.3c-0.5-0.8-1.3-1.4-1.1-2.5c0-0.3-0.2-0.8-0.5-0.8
		c-0.4-0.1-1-0.1-1.2,0.2c-0.3,0.3-0.5,0.8-0.5,1.3c-0.2,1.3-0.2,2.7-0.4,4c-0.4,2.8,0.6,5.4,1.7,7.9c0.5,1.1,1.5,1,2.2,0
		c0.3-0.5,0.5-1,0.8-1.5c1.2,0.8,1.2,2,1.6,3.2c0.4,1.1,0.7,2.3,1.3,3.3c0.5,1,1.4,1.7,2.1,2.6c0.7,0.9,1,1.9,0.6,3
		c-0.9,2.8-0.2,5.2,1.8,7.4c0.5,0.5,0.9,1.2,1.1,1.9c0.7,3.7,3.2,5.7,6.3,7.3c0.6,0.3,1.1,1,1.6,1.6c0.5,0.6,0.7,1.4,1.3,1.8
		c1.2,0.9,1.4,1.9,1,3.2c-0.3,0.8-0.7,1.6-1.1,2.4c-0.9,1.6-2,3.2-2,5.2c0,0.4-0.3,1.1-0.8,1.2c-0.5,0.1-0.8-0.5-1.2-0.8
		c-0.2-0.2-0.3-0.6-0.5-0.8c-0.5-0.9-1.2-1.2-2.2-1.2c-0.5,0-1.1-0.3-1.5-0.6c-0.7-0.6-1.5-0.5-1.7,0.3c-0.2,0.6-0.2,1.6,0.2,2
		c1.1,1.4,2.2,2.8,3.7,3.7c1.6,1,2.5,2.3,2.9,4.2c0.6,2.9,2.1,5.4,4.5,7.2c4,2.9,8.1,5.7,12.2,8.4c0.9,0.6,2.3,0.5,3.5,0.7
		c0.6,0.1,1.4,0.1,1.7,0.5c1.1,1.2,2.3,1.6,3.9,1.5c0.3,0,1,0.4,1.1,0.8c0.3,0.8,0.8,1.1,1.5,1.3c0.5,0.2,1.1,0.6,1.2,1
		c0.3,2.4,1.7,4.1,3.3,5.9c2.4,2.8,4.8,5.6,5.8,9.3c0.4,1.3,0.1,2.8,0.7,4c1.1,2.4,1.1,4.7,0.7,7.3c-0.3,1.7-0.8,2.8-2.4,3.5
		c-0.3,0.1-0.6,0.2-0.7,0.4c-0.6,0.9-1.3,0.5-2,0.2c-3.3-1.6-6.8-2.5-10.5-2.3c-1.7,0.1-3.5-0.3-5.2-0.5c-1.8-0.2-3.4,0.2-4.8,1
		c-0.4,0.3-0.7,1.2-0.6,1.8c0.1,0.4,0.8,0.9,1.4,1c0.6,0.1,1.2-0.3,1.9-0.4c0.8-0.1,1.7-0.3,2.5-0.2c1.8,0.1,3.7,0.5,5.5,0.4
		c2.5-0.1,4.8,0.4,7.1,1.4c0.7,0.3,1,0.7,1,1.5c0.1,3.1,1.6,5.4,4.3,6.1c1.7,0.4,3.5,0.4,5.2,0.2c1.6-0.2,3.1-0.9,4.7-1.3
		c0.4-0.1,1.1,0,1.4,0.3c0.8,0.8,1.7,0.9,2.6,0.4c1-0.4,1.4-1.2,1.4-2.3c0-0.4,0.2-0.9,0.5-1.2c2.4-1.8,4.9-3.5,7.3-5.2
		c1.5-1,3.2-1.9,4.8-2.9c0.4,0.7,0.7,1.2,1.1,1.7c1.5,1.9,3,3.7,4.5,5.5c0.3,0.3,0.9,0.6,1.2,0.5c0.5-0.1,1.3-0.5,1.4-0.9
		c0.1-0.6-0.1-1.4-0.5-1.9c-1.8-2.6-3.6-5.2-5.4-7.7c-0.4-0.5-0.4-0.9,0.1-1.5c1.8-2.3,2.2-4.8,0.8-7.5c-0.8-1.5-0.6-3.1-0.5-5
		c1.7,0.7,3.3,1.3,4.9,1.8c1.4,0.4,2.7,0.8,4.1,1.1c1.3,0.3,2.2,1.2,2,2.5c-0.1,0.8-0.4,1.5-0.6,2.3c-0.1,0.4-0.7,1.8-0.1,1.5
		c0.8-0.4,1.8-4.4,1.2-5.5c-0.1-0.1-0.1-0.2-0.2-0.3c-1.3-1-2.5-2.1-3.9-2.8c-1.8-0.9-3.9-1.5-5.8-2.2c-0.7-0.3-0.9-0.6-0.6-1.4
		c0.4-1.5,0.8-2.9,1.1-4.4c0.5-2.3-0.6-4.4-2.8-5.4c-1.1-0.5-2.2-1.1-3.4-1.6c-1.3-0.6-2.2-1.6-2.6-3.1c-0.3-1.2-0.7-2.5-1.1-3.7
		c-0.7-2.5-1.5-4.8-3.5-6.5c-0.6-0.5-1.1-1.5-1-2.3c0.1-1.7-0.2-3-1.4-4.2c-0.9-0.9-0.7-2.2-0.4-3.2c0.2-0.5,1.1-0.7,1.8-0.9
		c0.6-0.2,1.2-0.3,1.7-0.5c1.9-0.7,3.9-1.2,6-0.9c1.4,0.2,2.8-0.3,3.9-1.4c1.3-2,3.6-1.3,4.8,0.1c0.9,1.1,1.7,2,3,2
		c1.8,0,3.5-0.2,5.2-0.4c0.2,0,0.4-0.2,0.5-0.4c0-0.1-0.4-0.3-0.5-0.3c-2.6,0.3-1.5,0.2-2.5,0.3c-1.7,0.1-3.6,0.5-5-1
		c-0.9-1-1.8-2-3.3-1.9c-1.3,0.1-2.7,0-3.9,0.4c-1.2,0.4-2.4,0.8-3.7,0.5c-0.6-0.1-1.2,0-1.8,0.1c-2,0.5-4,1.1-6,1.7
		c-0.7,0.2-1.4,0.4-1.9-0.5c-0.5-0.8-1.2-1.4-1.9-1.9c-1.5-1.2-2.7-2.6-3.3-4.5c-0.8-2.6-1.8-5.1-3.3-7.4c-1.7-2.6-1.6-5.2-0.6-8.1
		c1.4-4.1,2.7-8.3,3.6-12.5c0.9-3.9,0.7-7.9-0.9-11.8c-0.6-1.6-1.2-3.2-1.7-4.8c-0.3-1.1-0.9-1.9-2-2.2c-0.8-0.2-1.5-0.5-2.3-0.6
		c-1.9-0.3-1.8-0.3-2.3-2.2c-0.4-1.5-1-2.9-2.3-3.8c-0.7-0.4-1.5-0.5-2,0.2c-0.6,0.7-0.3,1.3,0.4,1.8c0.8,0.6,1.6,2,0.8,2.4
		c-0.4,0.2-0.6-0.5-0.8-0.8c-0.9-1.2-1.2-2.7-1.5-4.1c-0.3-1.2-0.9-1.8-2-2c-1-0.3-2.1-0.6-3.1-1c-0.4-0.2-0.9-0.5-1-0.9
		c-0.3-1.2-1.2-1.6-2.2-1.9c-1.8-0.5-3.6-1-5.6-1.6c1.2-0.7,1.6-1.5,0.9-2.2c-0.4-0.4-1-0.8-1.5-0.8c-2.5,0-3.8-1.7-4.9-3.4
		c0.6-1.9,1.1-3.7,1.8-5.5c1.2-3.4,1.4-7.1,2.1-10.6c0.7-3.6,0.7-7.2-0.3-10.7c-0.9-3.2-1.8-6.3-3-9.4c-0.7-1.9-0.6-3.7-0.6-5.6
		c0-1.2,0-2.2-0.9-3.1c-0.2-0.2-0.5-0.7-0.3-0.9c0.2-0.3,0.7,0.1,1,0.2c0.6,0.1,1.3,0.5,1.8,0.4c1.9-0.5,2.7,0.1,3.2,2
		c0.4,1.6,1.2,3.1,2,4.6c0.4,0.8,1.3,0.7,1.5-0.2c0.2-1.1,0.8-0.9,1.4-0.5c0.3,0.2,0.5,0.4,0.8,0.5c1.1,0.6,2,0,1.9-1.2
		c-0.1-0.6-0.6-1.1-0.8-1.7c-0.2-0.5-0.7-1.3-0.3-1.6c0.4-0.3,1.1,0.2,1.4,0.5c0.6,0.5,1.2,0.8,1.9,0.4c0.9-0.5,1.7-0.3,2.5,0.5
		c0.9,0.9,2.7,0.9,3.8,0.2c0.6-0.5,0.8-1,0.3-1.6c-0.3-0.4-0.4-0.9-0.6-1.4c-0.2-0.4-0.3-0.9-0.6-1.1c-1.3-0.6-2-1.6-2.4-2.9
		c-0.5-1.3-1.2-1.5-2.5-0.9c-0.5,0.2-1.1,0.3-1.5,0.2c-1-0.3-1.4-0.1-1.6,0.9c-0.1,0.7-0.6,1-1.3,0.9c-1-0.2-2.1-0.2-3.1-0.4
		c-0.8-0.2-1.7-0.3-2.2-0.8c-1.3-1.3-2.3-2.7-3.4-4.1c-0.5-0.7-0.2-1.1,0.7-1.2c0.4,0,1-0.1,1.3-0.4c1.4-1.3,1.2-3-0.4-4
		c-0.2-0.2-0.5-0.3-0.7-0.4c-2.5-0.8-3.1-2.6-2.8-5.1c0.3-2.6-1.8-4.2-4.4-3.5c-0.7,0.2-1.4,0.3-1.8-0.4c-0.4-0.7-0.9-1.5-0.1-2.3
		c0.5-0.6,0.6-1.2,0.1-1.7c-0.6-0.6-1.2-0.8-2-0.3c-1.5,1-2.9,0.5-3.8-1.1c-0.5-0.8-0.8-1.9-1.5-2.4c-1-0.7-1.6-1.6-2.2-2.6
		c-1.9-2.9-2.8-6-2.1-9.4c0.8-4.5,1.5-9,1.6-13.5c0-0.8,0.5-1.6,0.9-2.4c0.6-1.4,1.5-2.7,2-4.2c0.7-2,1.4-4,1.9-6.1
		c0.5-2,1.7-3.3,3.3-4.3c1.8-1.1,3.6-2.3,5.4-3.4c1.6-1,3.4-0.4,4,1.5c0.8,2.8,2.9,4.2,5.4,5.1c1.2,0.4,1.8,0.9,1.9,2.1
		c0.1,1.1,0.8,1.7,1.9,1.8c1.8,0,3.3,0.9,4.5,2.2c1.1,1.2,2.1,1.4,3.6,0.6c2-1,3.8-2.3,4.6-4.5c0.1-0.4,0.4-0.9,0.8-0.9
		c0.5,0,0.8,0.6,0.9,1c1.1,3,3.8,4,6.5,4.3c3.1,0.4,5.5,2,6.5,5c0.5,1.5,2,1.8,3.1,0.7c0.7-0.7,1.2-0.6,1.4,0.3
		c0.6,2.1,1.3,4.1,1.8,6.2c0.3,1.1,0.9,1.8,1.9,2.3c0.9,0.5,1.8,1.1,2.4,1.9c0.8,1.2,1.8,1.9,3.2,1.9c1.7,0,2.8,0.8,4,1.8
		c0.7,0.6,1.7,0.8,2.6,1.3c0.9,0.4,1.8,0.7,2.6,1.2c0.9,0.6,1.7,1.5,2.5,2.2c0.8,0.8,1.7,1.1,2.7,0.9c1.4-0.4,5.9-10.5,4.1-13.7
		c-5.5-10.1,3.9-8.1-0.1-18.4c-0.9-2.4,1.9-7.1,0.5-9.3c-1.2-2-2.7-3.8-3.6-5.9c-1.5-3.3-3.1-6.5-6.2-8.7c-1.8-1.3-3.1-2.8-2.2-5.2
		c0.1-0.2,0.1-0.6,0-0.8c-0.3-1.7-2.3-4-1-4.9c1.8-1.3,2.7,1.3,5.4-0.8c1.3-1.1,2.4-2.3,3.6-3.5c1.6-1.7,2.2-3.7,1.3-5.9
		c-0.6-1.5-0.2-1.9,1.2-2.6c0.8-0.4,1.6-1,2.2-1.7c1-1.2-0.7-6.8,2.3-11.5C180.9-84.2,180.5-86.4,179.7-88z"/>
	<path class="st3" d="M136.4-70.1c1.4,0.7-1.1,2.1-2,2.5c-1.7,0.7-2.7,1.9-3.5,3.4c-0.2,0.3-0.3,0.7-0.6,0.9
		c-0.2,0.1-0.5,0.2-0.7,0.1c-0.1,0-0.3-0.4-0.3-0.6c1-2.7-1.1-3.7-2.7-4.9c-0.9-0.7-1.9-1.5-2.6-2.4c-1-1.5-0.6-3,1.1-3.9
		c1.2-0.6,2.3-1.4,3.6-1.8c1.2-0.4,2.3,0,2.9,1.3c0.2,0.5,0.7,0.9,1.2,1.3c1,0.9,0.9,1.7-0.2,2.4c-0.2,0.1-0.4,0.2-0.6,0.3
		c-0.9,0.4-1.7,0.9-1.2,2.1c0.4,1,1.5,1.6,2.5,1.3c0.9-0.3,1.7-0.9,2.6-1.5C135.9-69.6,136-70.2,136.4-70.1z"/>
	<path class="st3" d="M117.6,165.4c-0.3-0.1-0.2-0.7-0.3-1.2c-0.1-1.7-0.3-3.5-0.2-5.2c0.1-1,0.4-2,0.9-2.9c0.8-1.4,1.4-2.7,1.1-4.4
		c-0.1-0.4,0.1-1.2,0.6-1.3c0.5-0.1,1.1,0.6,1.1,0.9c0.1,1.5,0.4,3.1,0,4.4c-0.4,1.5-0.4,2.8,0.3,4.1c0.8,1.6,0,2.3-1.5,3.2
		C118.8,163.5,118.7,165.7,117.6,165.4z"/>
	<path class="st3" d="M156.4,224.2c-3.9,2.7-7.8,5.3-11.7,8c-0.1-0.1-0.1-0.2-0.2-0.2c0.3-0.3,0.6-0.7,1-0.9c2.2-1.4,3.7-3.2,4-5.9
		c0.2-1.7,1-2.1,2.7-1.8c0.9,0.1,1.9,0,2.8,0.2C155.4,223.6,155.9,224,156.4,224.2z"/>
	<path class="st3" d="M145.3-76c0.4,0.7-0.4,1.1-1.1,1.3c-1.1,0.3-2.4,0.7-3.4,0.7c-0.8,0-1.7,0-2.5-0.1c-0.5-0.1-1.4-0.5-1.4-0.9
		c-0.2-0.8-0.5-2,0.2-2.5c0.3-0.2,0.9,0,1.1,0.3c0.8,0.9,1.7,1,2.8,0.9C142.4-76.6,144.5-77.6,145.3-76z"/>
	<path class="st3" d="M128.5,231.2c0.2,0.1,0.7,1.6,1.2,2.2c1.3,2.1,3.2,2.7,5.5,1.8c1.3-0.5,2.6-1.1,3.9-1.6c0.6-0.2,1.4-0.6,2-0.2
		c0.1,0.1,0.1,0.3,0.1,0.5c-0.4,0.1-0.8,0.3-1.2,0.4c-1.4,0.5-2.8,1-4.2,1.4c-1.7,0.5-3.1,0.7-5-0.3
		C129.3,234.9,127.1,230.8,128.5,231.2z"/>
	<path class="st3" d="M141.4-16.8c-1.2,1.7-5.3-3.7-3.4-4.1c0.8-0.2,1,1.1,1.8,1.9C140.6-18.2,142-17.5,141.4-16.8z"/>
	<path class="st3" d="M105.9-46.2c0.3-0.7,1.4-0.7,2.1-1c0.2-0.1,0.8,0.1,0.8,0.5c0,0.3-0.3,0.5-0.6,0.6c-0.7,0.2-1.5,0.9-2.1,0.5
		C106-45.8,105.8-46,105.9-46.2z"/>
	<path class="st3" d="M99.3,43.4c-0.1-0.1-0.2-0.4-0.5-0.4s-0.5,0.1-0.4,0.6c0,0.5,0.1,1.4,0.3,1.7c0.2,0.4,0.2,0.9,0.6,1.3
		c0.4,0.5,0.4,0.8,0.7,0.9c0.3,0,0.5-0.4,0.5-0.5c0-0.2,0-1.2-0.1-1.5c-0.1-0.3-0.4-1.3-0.5-1.4S99.4,43.6,99.3,43.4z"/>
</g>
</svg>
