<?xml version="1.0" encoding="utf-8"?>
<!-- Generator: Adobe Illustrator 19.0.0, SVG Export Plug-In . SVG Version: 6.00 Build 0)  -->
<svg version="1.1" id="Слой_1" xmlns="http://www.w3.org/2000/svg" xmlns:xlink="http://www.w3.org/1999/xlink" x="0px" y="0px"
	 viewBox="0 0 24.2 131" style="enable-background:new 0 0 24.2 131;" xml:space="preserve">
<style type="text/css">
	.st0{display:none;fill:none;stroke:#B5B5B5;stroke-miterlimit:10;}
	.st1{fill:none;stroke:#797979;stroke-linecap:round;stroke-miterlimit:10;}
	.st2{display:none;fill:none;stroke:#010101;stroke-linecap:round;stroke-miterlimit:10;}
</style>
<path id="XMLID_2_" class="st0" d="M17.7,129.9c0.6-1.3,2-4.7,3.4-10.9c0.4-1.9,0.9-5.6,1.4-7.6c2.2-9-2.6-15.2-3.4-20.4
	c-3.8-23.8-6.6-27.3-16.4-41.6c-1.9-2.9-2.1-7-1.5-10.4c0.8-4.5,1.5-9,1.6-13.5c0-0.8,0.5-1.6,0.9-2.4c0.6-1.4,1.5-2.7,2-4.2
	c0.7-2,1.4-4,1.9-6.1c0.5-2,1.7-3.3,3.3-4.3c1.8-1.1,3.5-2.4,5.4-3.4c4.4-2.2,6.1-4.1,6.1-4.1"/>
<path id="XMLID_3_" class="st1" d="M17.8,129.9c0.6-1.3,2-4.7,3.4-10.9c0.4-1.9,0.9-5.6,1.4-7.6c2.2-9-2.6-15.2-3.4-20.4
	c-3.8-23.8-6.6-27.3-16.4-41.6c-1.9-2.9-2.1-7-1.5-10.4c0.8-4.5,1.5-9,1.6-13.5c0-0.8,0.5-1.6,0.9-2.4c0.6-1.4,1.5-2.7,2-4.2
	c0.7-2,1.4-4,1.9-6.1c0.5-2,1.7-3.3,3.3-4.3c1.8-1.1,3.5-2.4,5.4-3.4c4.4-2.2,6.1-4.1,6.1-4.1"/>
<path id="XMLID_4_" class="st2" d="M17.7,129.9c0.6-1.3,2-4.7,3.4-10.9c0.4-1.9,0.9-5.6,1.4-7.6c2.2-9-2.6-15.2-3.4-20.4
	c-3.8-23.8-6.6-27.3-16.4-41.6c-1.9-2.9-2.1-7-1.5-10.4c0.8-4.5,1.5-9,1.6-13.5c0-0.8,0.5-1.6,0.9-2.4c0.6-1.4,1.5-2.7,2-4.2
	c0.7-2,1.4-4,1.9-6.1c0.5-2,1.7-3.3,3.3-4.3c1.8-1.1,3.5-2.4,5.4-3.4c4.4-2.2,6.1-4.1,6.1-4.1"/>
</svg>
