<?xml version="1.0" encoding="utf-8"?>
<!-- Generator: Adobe Illustrator 19.0.0, SVG Export Plug-In . SVG Version: 6.00 Build 0)  -->
<svg version="1.1" id="Слой_1" xmlns="http://www.w3.org/2000/svg" xmlns:xlink="http://www.w3.org/1999/xlink" x="0px" y="0px"
	 viewBox="0 0 340.2 850.4" style="enable-background:new 0 0 340.2 850.4;" xml:space="preserve">
<style type="text/css">
	.st0{fill:#C0DFF5;}
	.st1{fill:#FFFFFF;}
	.st2{fill:none;stroke:#010101;stroke-miterlimit:10;stroke-dasharray:2,2;}
</style>
<path id="Вода" class="st0" d="M288.6,751.8c1.2-3.6,2-7.1,2.7-10.8c1.2-5.6-1.5-10.8-6.9-13.3c-2.7-1.2-5.4-2.7-8.3-3.9
	c-3.2-1.5-5.4-3.9-6.4-7.6c-0.7-2.9-1.7-6.1-2.7-9.1c-1.7-6.1-3.7-11.8-8.6-16c-1.5-1.2-2.7-3.7-2.5-5.6c0.2-4.2-0.5-7.4-3.4-10.3
	c-2.2-2.2-0.8-5.3-1-7.9c-0.1-2.2-2.4-5.4-4.2-7.6c-1.2-2-2.9-3.4-4.7-4.7c-3.7-2.9-6.6-6.4-8.1-11c-2-6.4-4.4-12.5-8.1-18.2
	c-4.2-6.4-3.9-12.8-1.5-19.9c3.4-10.1,6.6-20.4,8.8-30.7c2.2-9.6,1.7-19.4-2.2-29c-1.5-3.9-2.9-7.9-4.2-11.8
	c-0.7-2.7-2.2-4.7-4.9-5.4c-2-0.5-3.7-1.2-5.6-1.5c-4.7-0.7-4.4-0.7-5.6-5.4c-1-3.7-2.5-7.1-5.6-9.3c-1.7-1-3.7-1.2-4.9,0.5
	c-1.5,1.7-0.7,3.2,1,4.4c2,1.5,3.9,4.9,2,5.9c-1,0.5-1.5-1.2-2-2c-2.2-2.9-2.9-6.6-3.7-10.1c-0.7-2.9-2.2-4.4-4.9-4.9
	c-2.5-0.7-5.2-1.5-7.6-2.5c-1-0.5-2.2-1.2-2.5-2.2c-0.7-2.9-2.9-3.9-5.4-4.7c-4.4-1.2-8.8-2.5-13.7-3.9c2.9-1.7,3.9-3.7,2.2-5.4
	c-1-1-2.5-2-3.7-2c-6.1,0-9.3-4.2-12-8.3c1.5-4.7,2.7-9.1,4.4-13.5c2.9-8.3,3.4-17.4,5.2-26c1.7-8.8,1.7-17.7-0.7-26.3
	c-2.2-7.9-4.4-15.5-7.4-23.1c-1.7-4.7-1.5-9.1-1.5-13.7c0-2.9,0-5.4-2.2-7.6c-0.5-0.5-1.2-1.7-0.7-2.2c0.5-0.7,1.7,0.2,2.5,0.5
	c1.5,0.2,3.2,1.2,4.4,1c4.7-1.2,6.6,0.2,7.9,4.9c1,3.9,2.9,7.6,4.9,11.3c1,2,3.2,1.7,3.7-0.5c0.5-2.7,2-2.2,3.4-1.2
	c0.7,0.5,1.2,1,2,1.2c2.7,1.5,4.9,0,4.7-2.9c-0.2-1.5-1.5-2.7-2-4.2c-0.5-1.2-1.7-3.2-0.7-3.9c1-0.7,2.7,0.5,3.4,1.2
	c1.5,1.2,2.9,2,4.7,1c2.2-1.2,4.2-0.7,6.1,1.2c2.2,2.2,6.6,2.2,9.3,0.5c1.5-1.2,2-2.5,0.7-3.9c-0.7-1-1-2.2-1.5-3.4
	c-0.5-1-0.7-2.2-1.5-2.7c-3.2-1.5-4.9-3.9-5.9-7.1c-1.2-3.2-2.9-3.7-6.1-2.2c-1.2,0.5-2.7,0.7-3.7,0.5c-2.5-0.7-3.4-0.2-3.9,2.2
	c-0.2,1.7-1.5,2.5-3.2,2.2c-2.5-0.5-5.2-0.5-7.6-1c-2-0.5-4.2-0.7-5.4-2c-3.2-3.2-5.6-6.6-8.3-10.1c-1.2-1.7-0.5-2.7,1.7-2.9
	c1,0,2.5-0.2,3.2-1c3.4-3.2,2.9-7.4-1-9.8c-0.5-0.5-1.2-0.7-1.7-1c-6.1-2-7.6-6.4-6.9-12.5c0.7-6.4-4.4-10.3-10.8-8.6
	c-1.7,0.5-3.4,0.7-4.4-1c-1-1.7-2.2-3.7-0.2-5.6c1.2-1.5,1.5-2.9,0.2-4.2c-1.5-1.5-2.9-2-4.9-0.7c-3.7,2.5-7.1,1.2-9.3-2.7
	c-1.2-2-2-4.7-3.7-5.9c-2.5-1.7-3.9-3.9-5.4-6.4c-4.7-7.1-6.9-14.7-5.2-23.1c2-11,3.7-22.1,3.9-33.1c0-2,1.2-3.9,2.2-5.9
	c1.5-3.4,3.7-6.6,4.9-10.3c1.7-4.9,3.4-9.8,4.7-15c1.2-4.9,4.2-8.1,8.1-10.6c4.4-2.7,8.8-5.6,13.3-8.3c3.9-2.5,8.3-1,9.8,3.7
	c2,6.9,7.1,10.3,13.3,12.5c2.9,1,4.4,2.2,4.7,5.2c0.2,2.7,2,4.2,4.7,4.4c4.4,0,8.1,2.2,11,5.4c2.7,2.9,5.2,3.4,8.8,1.5
	c4.9-2.5,9.3-5.6,11.3-11c0.2-1,1-2.2,2-2.2c1.2,0,2,1.5,2.2,2.5c2.7,7.4,9.3,9.8,16,10.6c7.6,1,13.5,4.9,16,12.3
	c1.2,3.7,4.9,4.4,7.6,1.7c1.7-1.7,2.9-1.5,3.4,0.7c1.5,5.2,3.2,10.1,4.4,15.2c0.7,2.7,2.2,4.4,4.7,5.6c2.2,1.2,4.4,2.7,5.9,4.7
	c2,2.9,4.4,4.7,7.9,4.7c4.2,0,6.9,2,9.8,4.4c1.7,1.5,4.2,2,6.4,3.2c2.2,1,4.4,1.7,6.4,2.9c2.2,1.5,4.2,3.7,6.1,5.4
	c2,2,4.2,2.6,6.6,2.2c1-0.2,3-0.3,3.8,1s1.8,3.4,3.6,3.8V167.6c-2.9-4.9-2.9-3.6-5.2-8.7c-3.7-8.1-7.6-16-15.2-21.4
	c-4.4-3.2-7.6-6.9-5.4-12.8c0.2-0.5,0.2-1.5,0-2c-0.7-4.2-5.6-9.8-2.5-12c4.4-3.2,6.6,3.2,13.3-2c3.2-2.7,5.9-5.6,8.8-8.6
	c3.9-4.2,5.4-9.1,3.2-14.5c-1.5-3.7-0.5-4.7,2.9-6.4V20.2h-196c-2.8,4.8-4,9.3-4,12.8c0,0.2-0.5,5.6,3.2,10.3
	c2.7,3.4,6.6,5.4,9.6,8.6c4.2,4.4,4.7,7.6,1.5,13c-1.2,2-1.2,3.7,0,5.4c1.5,2.2,3.2,4.4,4.9,6.6c4.4,5.6,4.4,7.1-1,11.8
	c-0.5,0.5-0.9,0.8-1.2,1.2c-0.4,0.6-1,1-1.2,1.5c-0.2,0.5-0.5,1.1-0.5,2c0.1,1.2,1,2.2,2.7,3.2c1.5,0.7,2.9,2,3.9,3.2
	c2.9,4.7,5.6,9.6,8.6,14.5c2.7,4.7,2.2,7.9-1.5,11.5c-1.5,1.5-2.9,2.7-3.9,4.2c-1,1.7-2,3.9-2.2,5.9c-0.5,5.6,1.5,10.3,6.6,13.3
	c2.2,1.2,4.2,2.9,3.2,5.9c-1.2,4.4-3.4,8.1-7.1,10.8c-7.6,5.4-15.2,10.6-22.6,15.7c-4.7,3.2-7.4,7.6-9.1,13
	c-2,5.9-3.7,11.8-6.4,17.4c-3.9,8.1-6.4,16-5.9,25c0,2-0.2,4.2-0.5,6.1c-1,7.9-2.7,16-3.2,23.8c-0.2,4.4,1.2,9.1,2.5,13.5
	c1,3.2,2.7,6.1,4.4,8.8c1,1.7,1,2.9,0,4.7c-2.2,4.7-2.9,9.3,0.5,14.2c3.2,4.4,2.2,5.9-3.4,6.1c-0.5,0-0.7,0-1.2,0
	c-2.7-0.2-4.4,1-5.9,3.2c-3.7,5.4-3.2,11-1.5,16.7c0.7,2.5,0.2,3.4-1.5,4.9c-7.1,5.9-8.6,12-5.6,20.9c0.5,2,0.5,4.4-0.2,6.4
	c-1,3.9-8.1,6.9-10.8,4.9c-3.7-2.9-7.4-2.7-11.3-1c-4.7,2-6.1,1.5-8.1-3.4c-1.2-2.9-2.2-5.9-3.7-8.6c-0.5-1-2.2-2.2-3.2-2.2
	c-1,0-2.2,1.2-2.9,2.2c-0.5,0.7-0.2,2.7-1.2,2.7c-1.2,0,0-2.5-0.2-3.7c-0.2-1-0.7-2.7-1.2-2.7c-1.2,0-2.7,0.5-3.4,1.2
	c-0.7,0.5-0.7,2-1.2,2.9c-0.7,2-1.7,3.9-2.7,6.1c-2.9-2-4.2-1.7-6.1,0.7c-0.7,1-2,2.2-2.9,2.2c-3.2,0.2-5.2,2-5.4,5.2
	c-0.2,1.5-0.7,3.7,0.5,4.4c1,0.7,3.2-2.5,3.2-2.7c0.2-0.5,0.7-0.7,1.5,0c0.7,0.5,0.2,2.9,1.5,3.9c2.5,2.2,4.9,2.5,5.2,7.9
	c0,1.5,2.5,2.7,2.5,4.9c0,0.7-1.5,1-2.2,0.7c-3.4-0.5-4.9,1.2-4.7,5.2c0,1.5,1.5,3.2,2,4.7c0.2,1,0.7,2.2,0.5,2.9
	c-1.7,4.2,0.2,6.9,4.7,7.4c2.9,0.2,5.9,1,9.1,1c2.2,0,4.7,0,6.6-0.7c2.5-1,3.7-0.5,4.9,1.7c1.7,2.9,5.2,4.4,7.6,2.9
	c2-1.2,3.4-1,5.4,0.2c4.2,2.7,6.4,1.5,6.9-3.2c0.2-2.2,2-2.9,3.7-1.7c1.2,1,2.2,2.2,3.7,2.9c1.7,0.7,4.2,1.5,5.4,0.7s2-3.4,2-5.2
	c-0.2-6.6-3.4-12-8.6-16c-1.5-1.2-3.2-2.2-4.7-3.2c-3.9-2.9-4.4-5.9-2.2-10.1c0.7-1.5,1.5-2.9,1.2-4.4c-0.2-2.7,1-3.2,3.2-3.9
	c7.6-2,10.6-7.9,7.6-15.2c-2-5.2-1.2-9.8,2.5-14c1.7-2,3.4-3.7,5.2-5.4c2.5-2.5,4.2-5.2,3.9-9.1c-0.2-4.4,1.2-8.3,4.7-11.3
	c2.5-2,5.6-1.7,7.4,1c0.7,1.2,1.5,2.5,1.7,3.7c2.2,9.6,4.7,19.1,6.4,29c1.5,9.6,5.4,16.9,14.2,21.8c2.9,1.7,6.1,4.7,7.1,7.9
	c3.2,8.6,5.9,17.7,8.1,26.8c1.5,5.9,2.9,11.8,3.4,17.9c0.2,4.4-1.7,8.8-2,13.3c-0.7,11.8-4.7,22.8-7.6,34.1c-0.7,2.5-2,4.9-3.2,7.1
	c-0.7,1.5-2,1.7-2.9,0c-1-1.5-2-2.9-2.5-4.7c-2-6.6-6.6-9.8-12.8-12c-2-0.7-4.2-1.5-5.4,0.5c-1,1.7-1.7,4.2-1.2,5.9
	c0.5,2.2,1.7,4.2,3.2,5.9c5.2,5.4,8.3,11.8,10.1,18.7c1.7,6.9,4.7,13,9.3,18.4c6.6,7.4,10.8,16.2,14.7,25.3c2.2,5.2,4.9,10.1,7.9,15
	c0.5,1,2.2,2.2,3.2,1.5c1-0.5,0.7-2.7,0.5-3.7c-1.2-2.7-2.9-5.4-4.2-8.1c-2.9-6.9-5.6-13.7-8.3-20.6c-1-2.7,0.7-5.9,2.9-5.9
	c2.5,0.2,2.9-1,3.4-2.9c0.2-2.2,1.5-2,2.9-0.7c0.5,0.5,1,1.2,1.2,2c3.2,6.6,8.1,11.8,14.5,15.5c2.7,1.5,6.1,1.7,9.3,2.2
	c1,0,2.2-1.2,2.9-2c0.5-0.7,0.7-1.7,1-2.7c0.2,0,0.5,0,0.7-0.2c1,2.2,2.2,4.4,2.9,6.6c2,4.9,3.7,10.1,5.4,15
	c2.5,6.6,4.7,13.3,7.6,19.6c2.5,5.2,2.2,10.1-1,14.5c-1.7,2.5-2.7,4.7-2.9,7.6c0,1.2-1,2.5-2,3.2c-2,1.5-4.4,2.5-6.4,3.9
	c-3.9,3.2-5.4,3.2-8.6-1c-1.5-1.7-3.2-3.7-5.4-4.2c-2.7-0.7-3.9-2.2-5.4-4.4c-1.5-2.2-3.7-4.4-5.6-6.1c-0.7-0.5-2.5-0.5-3.2,0
	c-0.7,0.5-1.2,2.2-1,2.9c1,2.9,2,6.1,3.9,8.3c2.7,2.9,4.7,6.4,5.6,10.1c0.7,3.4,2,6.6,2.5,10.1c0.5,2.2,0.5,4.2,0.5,6.4
	c0,0.7-0.2,1.7-1,2c-0.7,0.2-1.5-0.5-1.7-1.2c-3.2-5.2-6.4-10.6-9.8-15.7c-2-2.9-4.7-5.4-7.1-8.1c-1.2-1.5-2.9-2.9-3.7-4.7
	c-2.2-5.4-3.4-11.3-3.4-17.2c-0.2-9.1-4.2-16.9-8.3-24.8c-2.7-4.9-5.9-9.3-10.3-13c-1.7-1.5-2.9-3.7-4.2-5.9
	c-2.2-4.2-3.9-8.8-6.4-13c-0.7-1.2-2.7-2.2-3.9-2c-1,0-2.5,2.2-2.2,3.4c0,3.2,0.2,6.6,1.5,9.3c1.7,3.9,4.4,7.4,6.9,11
	c4.9,7.9,9.6,15.5,14.5,23.3c1.2,2,2.5,3.9,3.2,5.9c0.2,0.7,0.5,2.2-0.2,2.9c-0.7,0.5-2-0.5-2.9-0.7c-0.5-0.2-1-0.7-1.2-1.2
	c-2.7-4.2-5.4-8.6-7.9-12.8c-2.9-5.2-5.6-10.3-8.8-15.2c-1.2-2-3.2-3.4-5.9-2c-2,1-2.7,4.2-1.2,6.6c1.7,3.2,3.4,6.1,5.6,8.8
	c3.9,5.2,8.6,9.8,12.5,14.7c4.9,6.1,3.9,13.3,3.7,20.4c-1-0.7-1.5-1.5-2-2.2c-1.2-2.2-2.2-4.4-3.7-6.4c-0.5-0.7-2-2-3.2-1.5
	c-1,0.5-1,2.2-1.2,3.2c0,0.5,0.5,1.2,0.7,2c2.9,8.3,5.9,16.7,8.6,25c0.5,1.2,0.7,2.9-0.2,3.7c-1,0.7-2.9-0.2-3.7-1
	c-2.7-2.7-5.6-5.6-7.6-8.8c-2.2-3.2-4.7-5.2-8.3-5.6c-1.5-0.2-3.2-1-4.4-2c-2.2-1.7-4.2-4.2-6.1-6.1c-3.2-2.7-3.4-5.4-0.7-8.6
	c1.7-2,2.5-3.9,2-6.1c-0.5-2.5-0.7-5.2-2-7.1c-3.4-5.4-7.1-10.6-11.3-15.5c-2.9-3.7-4.9-7.6-6.1-11.8c-1.2-3.7-2.5-7.4-4.7-10.6
	c-1.2-2-3.2-3.4-2.7-6.1c0-0.7-0.5-2-1.2-2c-1-0.2-2.5-0.2-2.9,0.5c-0.7,0.7-1.2,2-1.2,3.2c-0.5,3.2-0.5,6.6-1,9.8
	c-1,6.9,1.5,13.3,4.2,19.4c1.2,2.7,3.7,2.5,5.4,0c0.7-1.2,1.2-2.5,2-3.7c2.9,2,2.9,4.9,3.9,7.9c1,2.7,1.7,5.6,3.2,8.1
	c1.2,2.5,3.4,4.2,5.2,6.4c1.7,2.2,2.5,4.7,1.5,7.4c-2.2,6.9-0.5,12.8,4.4,18.2c1.2,1.2,2.2,2.9,2.7,4.7c1.7,9.1,7.9,14,15.5,17.9
	c1.5,0.7,2.7,2.5,3.9,3.9c1.2,1.5,1.7,3.4,3.2,4.4c2.9,2.2,3.4,4.7,2.5,7.9c-0.7,2-1.7,3.9-2.7,5.9c-2.2,3.9-4.9,7.9-4.9,12.8
	c0,1-0.7,2.7-2,2.9s-2-1.2-2.9-2c-0.5-0.5-0.7-1.5-1.2-2c-1.2-2.2-2.9-2.9-5.4-2.9c-1.2,0-2.7-0.7-3.7-1.5c-1.7-1.5-3.7-1.2-4.2,0.7
	c-0.5,1.5-0.5,3.9,0.5,4.9c2.7,3.4,5.4,6.9,9.1,9.1c3.9,2.5,6.1,5.6,7.1,10.3c1.5,7.1,5.2,13.3,11,17.7c9.8,7.1,19.9,14,29.9,20.6
	c2.2,1.5,5.6,1.2,8.6,1.7c1.5,0.2,3.4,0.2,4.2,1.2c2.7,2.9,5.6,3.9,9.6,3.7c0.7,0,2.5,1,2.7,2c0.7,2,2,2.7,3.7,3.2
	c1.2,0.5,2.7,1.5,2.9,2.5c0.7,5.9,4.2,10.1,8.1,14.5c5.9,6.9,11.8,13.7,14.2,22.8c1,3.2,0.2,6.9,1.7,9.8c2.7,5.9,2.7,11.5,1.7,17.9
	c-0.7,4.2-2,6.9-5.9,8.6c-0.7,0.2-1.5,0.5-1.7,1c-1.5,2.2-2.9,2.4-4.8,2.2c-2.1-0.2-4.6,0.9-4.3,7.3c0.2,7.6,3.9,13.3,10.6,15
	c4.2,1,8.6,1,12.8,0.5c3.9-0.5,7.6-2.2,11.5-3.2c1-0.2,2.7,0,3.4,0.7c2,2,4.2,2.2,6.4,1c2.5-1,3.4-2.9,3.4-5.6c0-1,0.5-2.2,1.2-2.9
	c5.9-4.4,12-8.6,17.9-12.8c0,0,8-6,10.6-7.4s5.4-7.6,7.1-10.3c3.8-6.1,5.4-11.8,2-18.4c-2-3.7-2.1-7.7-1.2-12.3
	C286.5,757.3,288,753.7,288.6,751.8z"/>
<path id="Остров_5_1_" class="st1" d="M225.8,73.7c3.4,1.7-2.7,5.2-4.9,6.1c-4.2,1.7-6.6,4.7-8.6,8.3
	c-0.5,0.7-0.7,1.7-1.5,2.2c-0.5,0.2-1.2,0.5-1.7,0.2c-0.2,0-0.7-1-0.7-1.5c2.5-6.6-2.7-9.1-6.6-12c-2.2-1.7-4.7-3.7-6.4-5.9
	c-2.5-3.7-1.5-7.4,2.7-9.6c2.9-1.5,5.6-3.4,8.8-4.4c2.9-1,5.6,0,7.1,3.2c0.5,1.2,1.7,2.2,2.9,3.2c2.5,2.2,2.2,4.2-0.5,5.9
	c-0.5,0.2-1,0.5-1.5,0.7c-2.2,1-4.2,2.2-2.9,5.2c1,2.5,3.7,3.9,6.1,3.2c2.2-0.7,4.2-2.2,6.4-3.7C224.5,75,224.8,73.5,225.8,73.7z"/>
<path id="Остров_5" class="st1" d="M179.6,651.7c-0.7-0.2-0.5-1.7-0.7-2.9c-0.2-4.2-0.7-8.6-0.5-12.8c0.2-2.5,1-4.9,2.2-7.1
	c2-3.4,3.4-6.6,2.7-10.8c-0.2-1,0.2-2.9,1.5-3.2c1.2-0.2,2.7,1.5,2.7,2.2c0.2,3.7,1,7.6,0,10.8c-1,3.7-1,6.9,0.7,10.1
	c2,3.9,0,5.6-3.7,7.9C182.6,647,182.3,652.4,179.6,651.7z"/>
<path id="Остров_4" class="st1" d="M247.6,59.3c1,1.7-1,2.7-2.7,3.2c-2.7,0.7-5.9,1.7-8.3,1.7c-2,0-4.2,0-6.1-0.2
	c-1.2-0.2-3.4-1.2-3.4-2.2c-0.5-2-1.2-4.9,0.5-6.1c0.7-0.5,2.2,0,2.7,0.7c2,2.2,4.2,2.5,6.9,2.2C240.5,57.8,245.6,55.3,247.6,59.3z"
	/>
<path id="Остров_3" class="st1" d="M238,204.5c-2.9,4.2-13-9.1-8.3-10.1c2-0.5,2.5,2.7,4.4,4.7
	C236.1,201.1,239.5,202.8,238,204.5z"/>
<path id="Остров_2" class="st1" d="M150.9,132.4c0.7-1.7,3.4-1.7,5.2-2.5c0.5-0.2,2,0.2,2,1.2c0,0.7-0.7,1.2-1.5,1.5
	c-1.7,0.5-3.7,2.2-5.2,1.2C151.2,133.4,150.7,132.9,150.9,132.4z"/>
<path id="Остров_1" class="st1" d="M134.7,352.3c-0.2-0.2-0.5-1-1.2-1s-1.2,0.2-1,1.5c0,1.2,0.2,3.4,0.7,4.2
	c0.5,1,0.5,2.2,1.5,3.2c1,1.2,1,2,1.7,2.2c0.7,0,1.2-1,1.2-1.2c0-0.5,0-2.9-0.2-3.7s-1-3.2-1.2-3.4S135,352.8,134.7,352.3z"/>
<polyline id="Угол" class="st2" points="115.2,20.2 320.2,20.2 320.2,285.8 "/>
</svg>
