<?xml version="1.0" encoding="utf-8"?>
<!-- Generator: Adobe Illustrator 19.0.0, SVG Export Plug-In . SVG Version: 6.00 Build 0)  -->
<svg version="1.1" xmlns="http://www.w3.org/2000/svg" xmlns:xlink="http://www.w3.org/1999/xlink" x="0px" y="0px"
	 viewBox="0 0 62.4 323.1" style="enable-background:new 0 0 62.4 323.1;" xml:space="preserve">
<style type="text/css">
	.st0{display:none;}
	.st1{display:inline;fill:none;stroke:#989898;stroke-width:3;stroke-linecap:round;stroke-miterlimit:10;}
	.st2{display:inline;fill:none;stroke:#EF3D39;stroke-width:3;stroke-linecap:round;stroke-miterlimit:10;}
	.st3{fill:none;stroke:#010101;stroke-width:3;stroke-linecap:round;stroke-miterlimit:10;}
</style>
<g id="Слой_1" class="st0">
	<path id="Базовая" class="st1" d="M44.6,320.3c1.5-3.2,4.9-11.6,8.4-26.8c1-4.7,2.2-13.8,3.4-18.7
		c5.4-22.1-6.4-37.4-8.4-50.1c-9.3-58.5-16.2-67.1-40.3-102.3c-4.7-7.1-5.2-17.2-3.7-25.6C6,85.8,7.8,74.7,8,63.7
		c0-2,1.2-3.9,2.2-5.9c1.5-3.4,3.7-6.6,4.9-10.3c1.7-4.9,3.4-9.8,4.7-15c1.2-4.9,4.2-8.1,8.1-10.6c4.4-2.7,8.6-5.9,13.3-8.4
		c10.8-5.4,15-10.1,15-10.1"/>
</g>
<g id="Слой_2" class="st0">
	<path id="Туда" class="st2" d="M44.6,320.3c1.5-3.2,4.9-11.6,8.4-26.8c1-4.7,2.2-13.8,3.4-18.7c5.4-22.1-6.4-37.4-8.4-50.1
		c-9.3-58.5-16.2-67.1-40.3-102.3c-4.7-7.1-5.2-17.2-3.7-25.6C6,85.8,7.8,74.7,8,63.7c0-2,1.2-3.9,2.2-5.9c1.5-3.4,3.7-6.6,4.9-10.3
		c1.7-4.9,3.4-9.8,4.7-15c1.2-4.9,4.2-8.1,8.1-10.6c4.4-2.7,8.6-5.9,13.3-8.4c10.8-5.4,15-10.1,15-10.1"/>
</g>
<g id="Слой_3">
	<path id="Обратно" class="st3" d="M44.6,320.3c1.5-3.2,4.9-11.6,8.4-26.8c1-4.7,2.2-13.8,3.4-18.7
		c5.4-22.1-6.4-37.4-8.4-50.1c-9.3-58.5-16.2-67.1-40.3-102.3c-4.7-7.1-5.2-17.2-3.7-25.6C6,85.8,7.8,74.7,8,63.7
		c0-2,1.2-3.9,2.2-5.9c1.5-3.4,3.7-6.6,4.9-10.3c1.7-4.9,3.4-9.8,4.7-15c1.2-4.9,4.2-8.1,8.1-10.6c4.4-2.7,8.6-5.9,13.3-8.4
		c10.8-5.4,15-10.1,15-10.1"/>
</g>
</svg>
